<svg xmlns="http://www.w3.org/2000/svg" width="37" height="27" fill="none" viewBox="0 0 37 27"><path fill="#fff" d="M29.7369 11.3763C29.2231 17.7354 18.3606 26.8389 18.3606 26.8389C18.3606 26.8389 7.5193 17.4181 6.98132 11.3763C6.4252 5.11993 12.0741 0 18.3606 0C24.6472 0 30.2507 5.11389 29.7369 11.3763Z"/><path fill="#E9E9E9" d="M23.8644 10.6509C23.8626 11.7391 23.5383 12.8023 22.9325 13.7062C22.3266 14.6101 21.4664 15.3141 20.4606 15.7293C19.4547 16.1444 18.3484 16.2521 17.2814 16.0388C16.2143 15.8254 15.2345 15.3005 14.4657 14.5304C13.6969 13.7603 13.1736 12.7796 12.962 11.7122C12.7503 10.6449 12.8599 9.5387 13.2767 8.53355C13.6935 7.52839 14.399 6.66935 15.3039 6.06499C16.2087 5.46063 17.2725 5.13806 18.3606 5.13806C19.0842 5.13806 19.8006 5.28072 20.4689 5.55788C21.1373 5.83504 21.7444 6.24125 22.2556 6.75329C22.7668 7.26532 23.172 7.87312 23.4481 8.54192C23.7241 9.21071 23.8656 9.92738 23.8644 10.6509Z"/><g style="mix-blend-mode:multiply"><path fill="#C9C9C9" d="M21.8908 6.43469C22.4026 7.57026 22.5139 8.84591 22.2064 10.0529C21.8989 11.26 21.1909 12.3269 20.1981 13.0792C19.2054 13.8315 17.9867 14.2246 16.7415 14.1941C15.4963 14.1637 14.2983 13.7116 13.3435 12.9117C13.6832 13.6653 14.1883 14.3327 14.8215 14.8643C15.4546 15.3958 16.1994 15.7778 17.0005 15.9819C17.8015 16.1859 18.6383 16.2068 19.4486 16.043C20.2588 15.8792 21.0218 15.5348 21.6806 15.0355C22.3395 14.5363 22.8773 13.8949 23.2542 13.1592C23.6311 12.4234 23.8373 11.6122 23.8575 10.7857C23.8777 9.95933 23.7114 9.13899 23.3709 8.3857C23.0304 7.63241 22.5245 6.96555 21.8908 6.43469V6.43469Z"/></g><path fill="#8C8C8C" d="M17.6322 16.9254C17.5536 16.8378 15.6586 14.704 15.6586 10.5542C15.6586 6.40447 17.5627 4.42481 17.6413 4.3432L18.0946 4.79052L17.8679 4.56686L18.0946 4.79052C18.0765 4.80865 16.2812 6.67951 16.2812 10.5542C16.2812 14.4289 18.0735 16.4781 18.0946 16.4993L17.6322 16.9254Z"/><path fill="#8C8C8C" d="M19.086 16.9254L18.6145 16.5114C18.6326 16.4902 20.4279 14.4531 20.4279 10.5663C20.4279 6.67951 18.6447 4.82376 18.6145 4.8026L19.0678 4.35529C19.1585 4.43689 21.0626 6.41354 21.0626 10.5784C21.0626 14.7433 19.1645 16.8499 19.086 16.9254Z"/><path fill="#8C8C8C" d="M12.5002 10.4212L12.074 9.94973C12.1617 9.86812 14.2955 7.97308 18.4422 7.97308C22.5889 7.97308 24.5716 9.87719 24.6563 9.97391L24.2089 10.4273C24.1908 10.4091 22.3199 8.61383 18.4422 8.61383C14.5645 8.61383 12.5183 10.4031 12.5002 10.4212Z"/><path fill="#8C8C8C" d="M18.276 13.3288C14.1111 13.3288 12.1465 11.4246 12.0649 11.3461L12.5092 10.8806C12.5274 10.8987 14.3982 12.6941 18.276 12.6941C22.1537 12.6941 24.1999 10.9018 24.218 10.8806L24.6441 11.3521C24.5565 11.4337 22.4227 13.3288 18.276 13.3288Z"/><path stroke="#fff" stroke-miterlimit="10" stroke-width=".907" d="M30.015 12.3405C33.8867 13.0114 36.362 14.0179 36.362 15.1422C36.362 17.1581 28.4494 18.7933 18.687 18.7933C8.92472 18.7933 1 17.1581 1 15.1422C1 14.0874 3.15799 13.1384 6.61561 12.4734"/><path stroke="#fff" stroke-miterlimit="10" stroke-width=".907" d="M30.015 11.3884C33.8867 12.0593 36.362 13.0658 36.362 14.1901C36.3499 16.2061 28.4373 17.8321 18.675 17.8321C8.91263 17.8321 1 16.2061 1 14.2052C1 13.1504 3.15799 12.2014 6.61561 11.5365"/><path fill="#fff" d="M7.76413 17.0735C7.76413 17.5081 7.63526 17.9329 7.39382 18.2942C7.15238 18.6556 6.80921 18.9372 6.40771 19.1035C6.00621 19.2698 5.56441 19.3133 5.13818 19.2286C4.71195 19.1438 4.32043 18.9345 4.01314 18.6272C3.70584 18.3199 3.49657 17.9284 3.41179 17.5022C3.32701 17.0759 3.37052 16.6341 3.53683 16.2326C3.70313 15.8311 3.98476 15.488 4.34611 15.2465C4.70745 15.0051 5.13227 14.8762 5.56685 14.8762C5.8554 14.8762 6.14112 14.9331 6.40771 15.0435C6.6743 15.1539 6.91652 15.3158 7.12056 15.5198C7.3246 15.7238 7.48645 15.9661 7.59687 16.2326C7.70729 16.4992 7.76413 16.785 7.76413 17.0735Z"/></svg>